<svg id="Layer_1" data-name="Layer 1" xmlns="http://www.w3.org/2000/svg" viewBox="0 0 323.94 159.36"><defs><style>.cls-1{fill:#27628e;}.cls-2{fill:#fff;}</style></defs><title>EDC_logo</title><rect class="cls-1" width="159.36" height="159.36"/><path class="cls-2" d="M14.91,52.47H49.46V63H26.56v9.85H47.94V83.18H26.56V96.11h25V106.8H14.91Z"/><path class="cls-2" d="M57.87,52.47h16A34.79,34.79,0,0,1,85.49,54.2a19.45,19.45,0,0,1,8,5.15,21.23,21.23,0,0,1,4.63,8.51,42.13,42.13,0,0,1,1.48,11.78,45.63,45.63,0,0,1-1,9.69,24.83,24.83,0,0,1-3.7,8.74,19.88,19.88,0,0,1-7.18,6.31,24.06,24.06,0,0,1-11.46,2.42H57.87ZM69.52,95.72h3.8a22.68,22.68,0,0,0,6.56-.84,10.35,10.35,0,0,0,4.57-2.72,11.52,11.52,0,0,0,2.67-5A29.83,29.83,0,0,0,88,79.41a31.91,31.91,0,0,0-.53-6,13.41,13.41,0,0,0-1.93-4.94,9.86,9.86,0,0,0-3.87-3.33,14.19,14.19,0,0,0-6.33-1.23h-5.8Z"/><path class="cls-2" d="M146.89,94.41a31,31,0,0,1-3.34,5.39,24.25,24.25,0,0,1-4.47,4.47,21,21,0,0,1-5.59,3,19.66,19.66,0,0,1-6.72,1.11,20.12,20.12,0,0,1-8.7-1.92,20.63,20.63,0,0,1-7.12-5.62,27.57,27.57,0,0,1-4.8-9,39.39,39.39,0,0,1-1.75-12.28,36.69,36.69,0,0,1,1.69-11.28,30.05,30.05,0,0,1,4.66-9.16A22.13,22.13,0,0,1,117.9,53a19.62,19.62,0,0,1,15.39-1.19,21.09,21.09,0,0,1,5.6,2.93,23.11,23.11,0,0,1,4.6,4.46,23.93,23.93,0,0,1,3.27,5.66l-9.37,5.39a11.29,11.29,0,0,0-1.34-3.07,12.13,12.13,0,0,0-2.25-2.68,11.93,11.93,0,0,0-2.93-1.91,8,8,0,0,0-3.38-.73,8.75,8.75,0,0,0-5,1.42,12.06,12.06,0,0,0-3.58,3.82,18.83,18.83,0,0,0-2.17,5.52,28.87,28.87,0,0,0-.72,6.51A29.39,29.39,0,0,0,117,87a18,18,0,0,0,2.48,5.6,10.39,10.39,0,0,0,3.64,3.35A9.27,9.27,0,0,0,127.57,97a8.71,8.71,0,0,0,3.93-.81,10.25,10.25,0,0,0,2.82-2,12.8,12.8,0,0,0,2-2.65c.53-1,1-1.81,1.39-2.58Z"/><path class="cls-1" d="M171.35,43.18h12.78v3.49h-8.47v3.26h7.9v3.42h-7.9v4.29h9.23v3.54H171.35Z"/><path class="cls-1" d="M195.44,61.18V59.93a5,5,0,0,1-1,.88,5.24,5.24,0,0,1-.94.48,3,3,0,0,1-.81.21c-.24,0-.45,0-.63,0a5.15,5.15,0,0,1-2.13-.45,5,5,0,0,1-1.77-1.33,6.59,6.59,0,0,1-1.2-2.16,9.28,9.28,0,0,1-.44-3,10.74,10.74,0,0,1,.35-2.78,6.77,6.77,0,0,1,1-2.26,5.09,5.09,0,0,1,1.68-1.52,4.69,4.69,0,0,1,2.3-.56,4.22,4.22,0,0,1,1.21.16,5.18,5.18,0,0,1,1,.36,5.66,5.66,0,0,1,.72.45c.21.15.36.28.48.38V43.18h3.65v18Zm-5-5.44a5.07,5.07,0,0,0,.31,1.32,2.93,2.93,0,0,0,.74,1.11,1.8,1.8,0,0,0,1.3.46,1.86,1.86,0,0,0,1.43-.54,3.59,3.59,0,0,0,.76-1.22,4.84,4.84,0,0,0,.3-1.35c0-.44,0-.74,0-.89a13.62,13.62,0,0,0-.07-1.36,4.93,4.93,0,0,0-.33-1.36,2.87,2.87,0,0,0-.71-1,1.72,1.72,0,0,0-1.24-.43,2,2,0,0,0-1.26.39,2.9,2.9,0,0,0-.81,1,4.9,4.9,0,0,0-.43,1.34,9.14,9.14,0,0,0-.12,1.48A10.64,10.64,0,0,0,190.4,55.74Z"/><path class="cls-1" d="M209.59,61.18V59.93a2.73,2.73,0,0,1-.43.46,4.14,4.14,0,0,1-.77.55,4.67,4.67,0,0,1-1.1.44,5.2,5.2,0,0,1-1.42.18,3.77,3.77,0,0,1-3.07-1.14,5.7,5.7,0,0,1-.94-3.63V47.87h3.79v8.54a4,4,0,0,0,.07.68,1.77,1.77,0,0,0,.27.63,1.43,1.43,0,0,0,.55.48,2.07,2.07,0,0,0,.92.18,2,2,0,0,0,1.66-.64,2.49,2.49,0,0,0,.5-1.56V47.87h3.72V61.18Z"/><path class="cls-1" d="M227.66,58a6.8,6.8,0,0,1-1.22,1.67,7.11,7.11,0,0,1-1.43,1.1,6.28,6.28,0,0,1-1.52.61,6.19,6.19,0,0,1-1.51.19,6.83,6.83,0,0,1-2.25-.39,5.85,5.85,0,0,1-2-1.24,6.18,6.18,0,0,1-1.48-2.17,7.82,7.82,0,0,1-.58-3.18,8.35,8.35,0,0,1,.6-3.36,6.35,6.35,0,0,1,1.53-2.2,5.59,5.59,0,0,1,2.07-1.21,7.07,7.07,0,0,1,2.22-.37,8.32,8.32,0,0,1,1.09.09,5.59,5.59,0,0,1,1.39.4,6.52,6.52,0,0,1,1.53,1,6.41,6.41,0,0,1,1.45,1.76l-2.79,1.66a5.44,5.44,0,0,0-.34-.59,3,3,0,0,0-.5-.58,2.74,2.74,0,0,0-.7-.46,2.32,2.32,0,0,0-1-.18,2.07,2.07,0,0,0-1.28.39,3.11,3.11,0,0,0-.83,1,4.67,4.67,0,0,0-.46,1.3,6.2,6.2,0,0,0-.15,1.31,6.47,6.47,0,0,0,.15,1.34,4,4,0,0,0,.49,1.29,3.17,3.17,0,0,0,.88,1,2.19,2.19,0,0,0,1.32.39,2.29,2.29,0,0,0,1-.19,2.45,2.45,0,0,0,.71-.5,3,3,0,0,0,.49-.67,3.46,3.46,0,0,0,.29-.68Z"/><path class="cls-1" d="M237,61.18V60l-.76.54a7.64,7.64,0,0,1-.85.51,5.44,5.44,0,0,1-1,.37,5.63,5.63,0,0,1-1.3.14,4.55,4.55,0,0,1-1.89-.37,3.94,3.94,0,0,1-1.29-1,3.48,3.48,0,0,1-.76-1.3,4.28,4.28,0,0,1-.25-1.44,3.8,3.8,0,0,1,.75-2.28,4.55,4.55,0,0,1,1.95-1.54,11.31,11.31,0,0,1,1.8-.55c.76-.18,1.84-.4,3.24-.68v-.74a2.73,2.73,0,0,0,0-.44,1.49,1.49,0,0,0-.17-.53,1.23,1.23,0,0,0-.44-.44,1.45,1.45,0,0,0-.81-.19,2.56,2.56,0,0,0-1,.16,1.79,1.79,0,0,0-.59.4,1.36,1.36,0,0,0-.3.5c-.06.17-.1.34-.14.49H229.4a3.61,3.61,0,0,1,.46-1.88,3.71,3.71,0,0,1,1.2-1.29,5.23,5.23,0,0,1,1.72-.73,8.87,8.87,0,0,1,2-.23,13,13,0,0,1,1.8.14,5.91,5.91,0,0,1,1.8.56,4,4,0,0,1,1.37,1.18,3.19,3.19,0,0,1,.55,2v7.77a10,10,0,0,0,.06,1.29,1.88,1.88,0,0,0,.31.78Zm-2.78-5.53a2.61,2.61,0,0,0-1.29.77,1.54,1.54,0,0,0-.32.88,1.34,1.34,0,0,0,.08.41,1.47,1.47,0,0,0,.24.44,1.5,1.5,0,0,0,.45.35,1.41,1.41,0,0,0,.67.16,2.2,2.2,0,0,0,1-.25,2.6,2.6,0,0,0,.82-.67,3.32,3.32,0,0,0,.55-1,4.15,4.15,0,0,0,.19-1.31V54.8Z"/><path class="cls-1" d="M247.67,50.6V57a1.1,1.1,0,0,0,.27.88,1.06,1.06,0,0,0,.71.22H249l.43,0H250v3l-.77.13a13.49,13.49,0,0,1-1.61.07,6.6,6.6,0,0,1-1.43-.15,2.55,2.55,0,0,1-1.16-.58,2.8,2.8,0,0,1-.77-1.14,5.33,5.33,0,0,1-.28-1.9V50.57h-1.86V48.18H244V44h3.72V48.2h2.5v2.4Z"/><path class="cls-1" d="M252.91,46.21v-3h3.72v3Zm0,15V47.87h3.72V61.18Z"/><path class="cls-1" d="M272.17,57.46a6.57,6.57,0,0,1-1.36,2.22,6,6,0,0,1-2.16,1.41,7.92,7.92,0,0,1-2.89.5,8.42,8.42,0,0,1-2.47-.38,6.21,6.21,0,0,1-2.2-1.23,6,6,0,0,1-1.58-2.2,8.26,8.26,0,0,1-.6-3.33,8.48,8.48,0,0,1,.38-2.53,6.31,6.31,0,0,1,1.2-2.24,6.06,6.06,0,0,1,2.09-1.61,7.13,7.13,0,0,1,3.06-.61,7.77,7.77,0,0,1,3.36.65,6.09,6.09,0,0,1,2.15,1.68,6.42,6.42,0,0,1,1.15,2.29,9.19,9.19,0,0,1,.34,2.47A8.62,8.62,0,0,1,272.17,57.46Zm-4.18-6a3,3,0,0,0-2.37-1,2.65,2.65,0,0,0-1.06.22,2.75,2.75,0,0,0-.93.69,3.65,3.65,0,0,0-.67,1.22,5.61,5.61,0,0,0-.26,1.8,7.22,7.22,0,0,0,.17,1.58,3.85,3.85,0,0,0,.55,1.27,2.7,2.7,0,0,0,1,.84,3,3,0,0,0,1.42.31,2.75,2.75,0,0,0,1.35-.32,2.91,2.91,0,0,0,.93-.85,3.79,3.79,0,0,0,.55-1.22,5.78,5.78,0,0,0,.18-1.46A4.69,4.69,0,0,0,268,51.5Z"/><path class="cls-1" d="M282.51,61.18V53a5,5,0,0,0-.07-.88,1.94,1.94,0,0,0-.29-.74,1.42,1.42,0,0,0-.58-.5,2.58,2.58,0,0,0-2,0,1.63,1.63,0,0,0-.61.64,2.76,2.76,0,0,0-.27,1,11.45,11.45,0,0,0-.06,1.22v7.45H274.9V47.87h3.77V49A4,4,0,0,1,280,48a4.8,4.8,0,0,1,2.24-.46,4,4,0,0,1,3,1,4.19,4.19,0,0,1,1,3.06v9.56Z"/><path class="cls-1" d="M171.32,70.68h5.92a14.4,14.4,0,0,1,4.3.57,7.22,7.22,0,0,1,3,1.71,6.74,6.74,0,0,1,1.71,2.82,12.45,12.45,0,0,1,.55,3.9,13.55,13.55,0,0,1-.39,3.21,7.83,7.83,0,0,1-1.37,2.9,7.19,7.19,0,0,1-2.65,2.09,9.9,9.9,0,0,1-4.24.8h-6.8ZM175.63,85H177a9.22,9.22,0,0,0,2.43-.28,4.09,4.09,0,0,0,1.69-.9,3.75,3.75,0,0,0,1-1.66,8.66,8.66,0,0,0,.32-2.57,9.78,9.78,0,0,0-.19-2,4.17,4.17,0,0,0-.72-1.63,3.5,3.5,0,0,0-1.43-1.11,5.82,5.82,0,0,0-2.34-.4h-2.15Z"/><path class="cls-1" d="M192.4,82.84V83a3.2,3.2,0,0,0,.8,2.22,2.69,2.69,0,0,0,2.12.89,3.29,3.29,0,0,0,1.2-.21,3.23,3.23,0,0,0,.94-.55,3.17,3.17,0,0,0,.67-.75,3.92,3.92,0,0,0,.42-.81l2.84,1.53a7.73,7.73,0,0,1-2.74,2.89,7.06,7.06,0,0,1-3.63,1,7,7,0,0,1-2.65-.47,5.6,5.6,0,0,1-2-1.35A6,6,0,0,1,189,85.17a8.43,8.43,0,0,1-.46-2.89,10.86,10.86,0,0,1,.32-2.55A6.53,6.53,0,0,1,190,77.37a5.94,5.94,0,0,1,2-1.73,6.54,6.54,0,0,1,3.12-.68,6.13,6.13,0,0,1,3,.69,5.83,5.83,0,0,1,2,1.78,7.48,7.48,0,0,1,1.08,2.48,11.75,11.75,0,0,1,.33,2.75v.18Zm5.24-2.45a2.91,2.91,0,0,0-.71-1.87,2.31,2.31,0,0,0-1.83-.75A2.44,2.44,0,0,0,194,78a2.5,2.5,0,0,0-.81.65,3,3,0,0,0-.49.86,4.55,4.55,0,0,0-.25.86Z"/><path class="cls-1" d="M210.38,88.68h-3.95l-4.16-13.31h4l2.28,9,2.11-9h3.87Z"/><path class="cls-1" d="M218.92,82.84V83a3.2,3.2,0,0,0,.8,2.22,2.67,2.67,0,0,0,2.12.89,3.29,3.29,0,0,0,1.2-.21,3.37,3.37,0,0,0,.94-.55,3.17,3.17,0,0,0,.67-.75,3.92,3.92,0,0,0,.42-.81l2.84,1.53a7.81,7.81,0,0,1-2.74,2.89,7.09,7.09,0,0,1-3.63,1,7,7,0,0,1-2.65-.47,5.6,5.6,0,0,1-2-1.35,6,6,0,0,1-1.31-2.17,8.43,8.43,0,0,1-.46-2.89,10.36,10.36,0,0,1,.32-2.55,6.53,6.53,0,0,1,1.09-2.36,5.94,5.94,0,0,1,2-1.73,6.54,6.54,0,0,1,3.12-.68,6.13,6.13,0,0,1,3,.69,5.83,5.83,0,0,1,2,1.78,7.92,7.92,0,0,1,1.08,2.48,11.75,11.75,0,0,1,.33,2.75v.18Zm5.24-2.45a2.91,2.91,0,0,0-.71-1.87,2.31,2.31,0,0,0-1.83-.75,2.44,2.44,0,0,0-1.15.25,2.5,2.5,0,0,0-.81.65,2.74,2.74,0,0,0-.49.86,4.55,4.55,0,0,0-.25.86Z"/><path class="cls-1" d="M230.5,88.68v-18h3.73v18Z"/><path class="cls-1" d="M249.76,85a6.42,6.42,0,0,1-1.36,2.22,5.92,5.92,0,0,1-2.15,1.41,7.92,7.92,0,0,1-2.89.5,8.37,8.37,0,0,1-2.47-.38,6.25,6.25,0,0,1-2.21-1.23,6.16,6.16,0,0,1-1.58-2.2,8.26,8.26,0,0,1-.6-3.33,8.82,8.82,0,0,1,.38-2.53,6.47,6.47,0,0,1,1.2-2.24,6.2,6.2,0,0,1,2.1-1.61,7.07,7.07,0,0,1,3.06-.61,7.75,7.75,0,0,1,3.35.65,6,6,0,0,1,2.16,1.68,6.59,6.59,0,0,1,1.15,2.29,9.19,9.19,0,0,1,.34,2.47A8.38,8.38,0,0,1,249.76,85Zm-4.17-6a3,3,0,0,0-2.38-1,2.57,2.57,0,0,0-1.05.22,2.75,2.75,0,0,0-.93.69,3.65,3.65,0,0,0-.67,1.22,5.35,5.35,0,0,0-.26,1.8,6.66,6.66,0,0,0,.17,1.58A3.65,3.65,0,0,0,241,84.8a2.62,2.62,0,0,0,1,.84,3,3,0,0,0,1.42.31,2.68,2.68,0,0,0,1.34-.32,2.71,2.71,0,0,0,.93-.85,3.8,3.8,0,0,0,.56-1.22,5.78,5.78,0,0,0,.18-1.46A4.75,4.75,0,0,0,245.59,79Z"/><path class="cls-1" d="M255.72,75.37v1.3a4,4,0,0,1,.36-.43,2.86,2.86,0,0,1,.69-.54,4.62,4.62,0,0,1,1.06-.45,5.35,5.35,0,0,1,1.47-.19,5,5,0,0,1,2.41.56,5.29,5.29,0,0,1,1.74,1.52,6.9,6.9,0,0,1,1.05,2.22,9.56,9.56,0,0,1,.36,2.64,10,10,0,0,1-.39,2.89,6.5,6.5,0,0,1-1.12,2.18,4.8,4.8,0,0,1-1.75,1.38,5.35,5.35,0,0,1-2.3.48,5,5,0,0,1-.91-.07,4.24,4.24,0,0,1-.74-.22,3.65,3.65,0,0,1-.71-.36l-.78-.47V93.3h-3.81V75.37Zm.43,8.39a4.07,4.07,0,0,0,.49,1.24,2.51,2.51,0,0,0,.81.81,2.1,2.1,0,0,0,1.14.29,2,2,0,0,0,1.24-.38,2.71,2.71,0,0,0,.8-1,5.16,5.16,0,0,0,.46-1.39,9.09,9.09,0,0,0,.14-1.54,9.28,9.28,0,0,0-.07-1,4.78,4.78,0,0,0-.34-1.31,3.47,3.47,0,0,0-.77-1.15,1.87,1.87,0,0,0-1.36-.5,2.27,2.27,0,0,0-1,.24,2.64,2.64,0,0,0-.87.78,4.35,4.35,0,0,0-.6,1.37,8.19,8.19,0,0,0-.22,2A7.48,7.48,0,0,0,256.15,83.76Z"/><path class="cls-1" d="M270.71,75.37v1.38c.08-.11.21-.25.39-.45a3.28,3.28,0,0,1,.71-.57,4.66,4.66,0,0,1,1.05-.5A4.11,4.11,0,0,1,274.3,75a4.9,4.9,0,0,1,2.13.41,4,4,0,0,1,1.43,1.15c.18-.16.39-.32.62-.5a5.76,5.76,0,0,1,.82-.51,5.08,5.08,0,0,1,1.06-.39,4.75,4.75,0,0,1,1.29-.16,4.13,4.13,0,0,1,2.85,1,3.77,3.77,0,0,1,1.07,2.94v9.77h-3.72V81a4.59,4.59,0,0,0-.37-2.07,1.42,1.42,0,0,0-1.4-.73,1.69,1.69,0,0,0-1.49.64,3.11,3.11,0,0,0-.46,1.86v8h-3.72v-8a3,3,0,0,0-.48-2,1.73,1.73,0,0,0-1.36-.55,1.65,1.65,0,0,0-1,.27,1.74,1.74,0,0,0-.57.69,3,3,0,0,0-.25.89,7.39,7.39,0,0,0-.07.91v7.7H267V75.37Z"/><path class="cls-1" d="M291.64,82.84V83a3.2,3.2,0,0,0,.8,2.22,2.69,2.69,0,0,0,2.12.89,3.29,3.29,0,0,0,1.2-.21,3.23,3.23,0,0,0,.94-.55,3.17,3.17,0,0,0,.67-.75,3.92,3.92,0,0,0,.42-.81l2.84,1.53a7.73,7.73,0,0,1-2.74,2.89,7.49,7.49,0,0,1-6.28.49,5.56,5.56,0,0,1-2-1.35,5.89,5.89,0,0,1-1.31-2.17,8.42,8.42,0,0,1-.47-2.89,10.86,10.86,0,0,1,.32-2.55,6.53,6.53,0,0,1,1.09-2.36,5.94,5.94,0,0,1,2-1.73,6.54,6.54,0,0,1,3.12-.68,6.13,6.13,0,0,1,3,.69,5.74,5.74,0,0,1,2,1.78,7.48,7.48,0,0,1,1.08,2.48,11.75,11.75,0,0,1,.33,2.75v.18Zm5.25-2.45a3,3,0,0,0-.71-1.87,2.35,2.35,0,0,0-1.84-.75,2.44,2.44,0,0,0-1.15.25,2.5,2.5,0,0,0-.81.65,3,3,0,0,0-.49.86,5.43,5.43,0,0,0-.25.86Z"/><path class="cls-1" d="M310.38,88.68V80.47a5,5,0,0,0-.08-.88,1.93,1.93,0,0,0-.28-.74,1.45,1.45,0,0,0-.59-.5,2.55,2.55,0,0,0-2,.05,1.56,1.56,0,0,0-.61.64,2.76,2.76,0,0,0-.27,1,9.22,9.22,0,0,0-.07,1.22v7.45h-3.72V75.37h3.77v1.17a4.07,4.07,0,0,1,1.36-1,4.83,4.83,0,0,1,2.24-.46,4,4,0,0,1,3,1,4.2,4.2,0,0,1,1,3.06v9.56Z"/><path class="cls-1" d="M321.44,78.1v6.37a.89.89,0,0,0,1,1.1h.33l.43,0h.57v3l-.77.13a13.49,13.49,0,0,1-1.61.07,6.53,6.53,0,0,1-1.43-.15,2.5,2.5,0,0,1-1.16-.58,2.82,2.82,0,0,1-.78-1.14,5.56,5.56,0,0,1-.28-1.9V78.07h-1.86V75.68h1.86V71.52h3.72V75.7h2.5v2.4Z"/><path class="cls-1" d="M186.36,112.07a10.8,10.8,0,0,1-1.24,1.79,8.64,8.64,0,0,1-1.65,1.48,8.3,8.3,0,0,1-7.78.74,7.69,7.69,0,0,1-2.63-1.86,9.08,9.08,0,0,1-1.78-3,11.87,11.87,0,0,1-.64-4.07,10.9,10.9,0,0,1,.62-3.73,9.53,9.53,0,0,1,1.73-3,7.82,7.82,0,0,1,2.64-2,7.64,7.64,0,0,1,3.38-.74,7.73,7.73,0,0,1,2.31.34,7.85,7.85,0,0,1,2.07,1,8.35,8.35,0,0,1,1.71,1.48,7.88,7.88,0,0,1,1.21,1.87l-3.47,1.79a3.33,3.33,0,0,0-.5-1,4.11,4.11,0,0,0-.83-.89,4.78,4.78,0,0,0-1.08-.63,3.35,3.35,0,0,0-1.25-.24,3.57,3.57,0,0,0-1.84.47A4.1,4.1,0,0,0,176,103a5.7,5.7,0,0,0-.81,1.82A8.52,8.52,0,0,0,175,107a8.81,8.81,0,0,0,.34,2.6,5.62,5.62,0,0,0,.92,1.85,3.82,3.82,0,0,0,1.34,1.11,3.77,3.77,0,0,0,1.66.37,3.51,3.51,0,0,0,1.45-.27,3.58,3.58,0,0,0,1-.67,4.33,4.33,0,0,0,.74-.88c.19-.32.37-.6.51-.86Z"/><path class="cls-1" d="M191.38,110.34v.15a3.19,3.19,0,0,0,.79,2.22,2.69,2.69,0,0,0,2.12.89,3.29,3.29,0,0,0,1.2-.21,3.23,3.23,0,0,0,.94-.55,3,3,0,0,0,.67-.75,3.92,3.92,0,0,0,.42-.81l2.84,1.53a7.73,7.73,0,0,1-2.74,2.89,7.49,7.49,0,0,1-6.28.49,5.56,5.56,0,0,1-2-1.35,5.89,5.89,0,0,1-1.31-2.17,8.42,8.42,0,0,1-.47-2.89,10.86,10.86,0,0,1,.32-2.55,6.7,6.7,0,0,1,1.09-2.36,5.94,5.94,0,0,1,2-1.73,6.54,6.54,0,0,1,3.12-.68,6.13,6.13,0,0,1,3,.69,5.74,5.74,0,0,1,2,1.78,7.48,7.48,0,0,1,1.08,2.48,11.75,11.75,0,0,1,.33,2.75v.18Zm5.24-2.45a3,3,0,0,0-.71-1.87,2.35,2.35,0,0,0-1.84-.75,2.44,2.44,0,0,0-1.15.25,2.5,2.5,0,0,0-.81.65,3,3,0,0,0-.49.86,4.48,4.48,0,0,0-.24.86Z"/><path class="cls-1" d="M210.23,116.18V108a5,5,0,0,0-.07-.88,1.94,1.94,0,0,0-.29-.74,1.42,1.42,0,0,0-.58-.5,2.58,2.58,0,0,0-2,.05,1.56,1.56,0,0,0-.61.64,2.76,2.76,0,0,0-.27,1,11.45,11.45,0,0,0-.06,1.22v7.45h-3.73V102.87h3.78V104a4,4,0,0,1,1.35-1,4.86,4.86,0,0,1,2.24-.46,4,4,0,0,1,3,1,4.19,4.19,0,0,1,1,3.06v9.56Z"/><path class="cls-1" d="M221.42,105.6V112a.89.89,0,0,0,1,1.1h.33l.43,0h.56v3l-.77.13a13.31,13.31,0,0,1-1.6.07,6.63,6.63,0,0,1-1.44-.15,2.6,2.6,0,0,1-1.16-.58,2.8,2.8,0,0,1-.77-1.14,5.33,5.33,0,0,1-.28-1.9v-6.94h-1.86v-2.39h1.86V99h3.72v4.18h2.5v2.4Z"/><path class="cls-1" d="M229.23,110.34v.15a3.2,3.2,0,0,0,.8,2.22,2.66,2.66,0,0,0,2.11.89,3.25,3.25,0,0,0,1.2-.21,3.29,3.29,0,0,0,.95-.55,3.17,3.17,0,0,0,.67-.75,3.92,3.92,0,0,0,.42-.81l2.84,1.53a7.81,7.81,0,0,1-2.74,2.89,7.51,7.51,0,0,1-6.29.49,5.65,5.65,0,0,1-2-1.35,6,6,0,0,1-1.31-2.17,8.43,8.43,0,0,1-.46-2.89,10.84,10.84,0,0,1,.31-2.55,6.88,6.88,0,0,1,1.09-2.36,6.07,6.07,0,0,1,2-1.73,6.54,6.54,0,0,1,3.12-.68,6.06,6.06,0,0,1,3,.69,5.77,5.77,0,0,1,2,1.78,7.68,7.68,0,0,1,1.07,2.48,11.75,11.75,0,0,1,.33,2.75v.18Zm5.24-2.45a2.91,2.91,0,0,0-.71-1.87,2.32,2.32,0,0,0-1.84-.75,2.47,2.47,0,0,0-1.15.25,2.57,2.57,0,0,0-.8.65,2.74,2.74,0,0,0-.49.86,4.55,4.55,0,0,0-.25.86Z"/><path class="cls-1" d="M244.39,102.87v1.38l.55-.46a4.29,4.29,0,0,1,.95-.54,6.33,6.33,0,0,1,1.33-.42,7.86,7.86,0,0,1,.89-.11v3.46l-1.26.21a7.45,7.45,0,0,0-1.21.29,1.91,1.91,0,0,0-.72.43,1.33,1.33,0,0,0-.35.65,4.15,4.15,0,0,0-.09.92v7.5h-3.72V102.87Z"/></svg>